<mxfile host="app.diagrams.net" modified="2024-04-28T02:53:10.111Z" agent="Mozilla/5.0 (X11; Linux x86_64) AppleWebKit/537.36 (KHTML, like Gecko) Chrome/124.0.0.0 Safari/537.36" etag="8vncsg1U2kDmhinf_Yw2" version="24.3.1" type="device">
  <diagram name="Page-1" id="qzKxs13KKEXNRuvnxmGZ">
    <mxGraphModel dx="1050" dy="1665" grid="1" gridSize="10" guides="1" tooltips="1" connect="1" arrows="1" fold="1" page="1" pageScale="1" pageWidth="850" pageHeight="1100" math="0" shadow="0">
      <root>
        <mxCell id="0" />
        <mxCell id="1" parent="0" />
        <mxCell id="rr90imxMItdPGlIV6I_6-11" value="" style="rounded=0;whiteSpace=wrap;html=1;direction=south;" parent="1" vertex="1">
          <mxGeometry x="145" y="-40" width="420" height="850" as="geometry" />
        </mxCell>
        <mxCell id="rr90imxMItdPGlIV6I_6-1" value="Admin" style="shape=umlActor;verticalLabelPosition=bottom;verticalAlign=top;html=1;outlineConnect=0;" parent="1" vertex="1">
          <mxGeometry x="90" y="95" width="30" height="60" as="geometry" />
        </mxCell>
        <mxCell id="rr90imxMItdPGlIV6I_6-3" value="CRUD&amp;nbsp; vijilantes, agregar hogar, encargado" style="ellipse;whiteSpace=wrap;html=1;" parent="1" vertex="1">
          <mxGeometry x="290" y="40" width="160" height="80" as="geometry" />
        </mxCell>
        <mxCell id="rr90imxMItdPGlIV6I_6-4" value="Hisorial de entradas" style="ellipse;whiteSpace=wrap;html=1;" parent="1" vertex="1">
          <mxGeometry x="290" y="130" width="160" height="80" as="geometry" />
        </mxCell>
        <mxCell id="rr90imxMItdPGlIV6I_6-8" style="edgeStyle=orthogonalEdgeStyle;rounded=0;orthogonalLoop=1;jettySize=auto;html=1;exitX=1;exitY=0.3333333333333333;exitDx=0;exitDy=0;exitPerimeter=0;curved=1;fillColor=#fff2cc;strokeColor=#d6b656;" parent="1" source="rr90imxMItdPGlIV6I_6-1" target="rr90imxMItdPGlIV6I_6-3" edge="1">
          <mxGeometry relative="1" as="geometry">
            <mxPoint x="123" y="111" as="sourcePoint" />
            <mxPoint x="300" y="15" as="targetPoint" />
          </mxGeometry>
        </mxCell>
        <mxCell id="rr90imxMItdPGlIV6I_6-9" style="edgeStyle=orthogonalEdgeStyle;rounded=0;orthogonalLoop=1;jettySize=auto;html=1;curved=1;entryX=0.002;entryY=0.407;entryDx=0;entryDy=0;entryPerimeter=0;fillColor=#fff2cc;strokeColor=#d6b656;" parent="1" target="rr90imxMItdPGlIV6I_6-4" edge="1">
          <mxGeometry relative="1" as="geometry">
            <mxPoint x="120" y="115" as="sourcePoint" />
            <mxPoint x="300" y="90" as="targetPoint" />
            <Array as="points">
              <mxPoint x="270" y="115" />
              <mxPoint x="270" y="163" />
            </Array>
          </mxGeometry>
        </mxCell>
        <mxCell id="rr90imxMItdPGlIV6I_6-12" value="&lt;font style=&quot;font-size: 20px;&quot;&gt;Seguridad sv&lt;/font&gt;" style="text;html=1;align=center;verticalAlign=middle;whiteSpace=wrap;rounded=0;strokeWidth=23;arcSize=20;" parent="1" vertex="1">
          <mxGeometry x="300" y="-10" width="110" height="30" as="geometry" />
        </mxCell>
        <mxCell id="rr90imxMItdPGlIV6I_6-17" style="edgeStyle=orthogonalEdgeStyle;rounded=0;orthogonalLoop=1;jettySize=auto;html=1;exitX=0;exitY=0.3333333333333333;exitDx=0;exitDy=0;exitPerimeter=0;curved=1;fillColor=#dae8fc;strokeColor=#6c8ebf;" parent="1" source="rr90imxMItdPGlIV6I_6-14" target="rr90imxMItdPGlIV6I_6-16" edge="1">
          <mxGeometry relative="1" as="geometry" />
        </mxCell>
        <mxCell id="rr90imxMItdPGlIV6I_6-14" value="Residente normale" style="shape=umlActor;verticalLabelPosition=bottom;verticalAlign=top;html=1;outlineConnect=0;" parent="1" vertex="1">
          <mxGeometry x="670" y="275" width="30" height="60" as="geometry" />
        </mxCell>
        <mxCell id="rr90imxMItdPGlIV6I_6-16" value="Generar una peticion" style="ellipse;whiteSpace=wrap;html=1;" parent="1" vertex="1">
          <mxGeometry x="290" y="220" width="160" height="80" as="geometry" />
        </mxCell>
        <mxCell id="rr90imxMItdPGlIV6I_6-21" value="Agregar recidentes normal al hogar" style="ellipse;whiteSpace=wrap;html=1;" parent="1" vertex="1">
          <mxGeometry x="290" y="320" width="160" height="80" as="geometry" />
        </mxCell>
        <mxCell id="rr90imxMItdPGlIV6I_6-27" style="edgeStyle=orthogonalEdgeStyle;rounded=0;orthogonalLoop=1;jettySize=auto;html=1;exitX=1;exitY=0.3333333333333333;exitDx=0;exitDy=0;exitPerimeter=0;entryX=0;entryY=0.5;entryDx=0;entryDy=0;curved=1;fillColor=#d5e8d4;strokeColor=#82b366;" parent="1" source="rr90imxMItdPGlIV6I_6-24" target="rr90imxMItdPGlIV6I_6-21" edge="1">
          <mxGeometry relative="1" as="geometry" />
        </mxCell>
        <mxCell id="rr90imxMItdPGlIV6I_6-24" value="Encargado hogar" style="shape=umlActor;verticalLabelPosition=bottom;verticalAlign=top;html=1;outlineConnect=0;" parent="1" vertex="1">
          <mxGeometry x="70" y="330" width="30" height="60" as="geometry" />
        </mxCell>
        <mxCell id="rr90imxMItdPGlIV6I_6-28" style="edgeStyle=orthogonalEdgeStyle;rounded=0;orthogonalLoop=1;jettySize=auto;html=1;curved=1;fillColor=#d5e8d4;strokeColor=#82b366;entryX=0.031;entryY=0.694;entryDx=0;entryDy=0;entryPerimeter=0;" parent="1" target="rr90imxMItdPGlIV6I_6-16" edge="1">
          <mxGeometry relative="1" as="geometry">
            <mxPoint x="110" y="350" as="sourcePoint" />
            <mxPoint x="290" y="360" as="targetPoint" />
            <Array as="points">
              <mxPoint x="250" y="351" />
              <mxPoint x="250" y="276" />
            </Array>
          </mxGeometry>
        </mxCell>
        <mxCell id="rr90imxMItdPGlIV6I_6-32" value="Historial entradas a su hogar" style="ellipse;whiteSpace=wrap;html=1;" parent="1" vertex="1">
          <mxGeometry x="290" y="410" width="160" height="80" as="geometry" />
        </mxCell>
        <mxCell id="rr90imxMItdPGlIV6I_6-33" style="edgeStyle=orthogonalEdgeStyle;rounded=0;orthogonalLoop=1;jettySize=auto;html=1;exitX=1;exitY=0.3333333333333333;exitDx=0;exitDy=0;exitPerimeter=0;entryX=0;entryY=0.5;entryDx=0;entryDy=0;curved=1;fillColor=#d5e8d4;strokeColor=#82b366;" parent="1" source="rr90imxMItdPGlIV6I_6-24" target="rr90imxMItdPGlIV6I_6-32" edge="1">
          <mxGeometry relative="1" as="geometry">
            <mxPoint x="110" y="360" as="sourcePoint" />
            <mxPoint x="300" y="460" as="targetPoint" />
          </mxGeometry>
        </mxCell>
        <mxCell id="rr90imxMItdPGlIV6I_6-35" value="Hacepta peticiones" style="ellipse;whiteSpace=wrap;html=1;" parent="1" vertex="1">
          <mxGeometry x="290" y="500" width="160" height="80" as="geometry" />
        </mxCell>
        <mxCell id="rr90imxMItdPGlIV6I_6-36" style="edgeStyle=orthogonalEdgeStyle;rounded=0;orthogonalLoop=1;jettySize=auto;html=1;exitX=1;exitY=0.3333333333333333;exitDx=0;exitDy=0;exitPerimeter=0;entryX=0;entryY=0.5;entryDx=0;entryDy=0;curved=1;fillColor=#d5e8d4;strokeColor=#82b366;" parent="1" source="rr90imxMItdPGlIV6I_6-24" target="rr90imxMItdPGlIV6I_6-35" edge="1">
          <mxGeometry relative="1" as="geometry">
            <mxPoint x="110" y="360" as="sourcePoint" />
            <mxPoint x="300" y="460" as="targetPoint" />
          </mxGeometry>
        </mxCell>
        <mxCell id="rr90imxMItdPGlIV6I_6-42" style="edgeStyle=orthogonalEdgeStyle;rounded=0;orthogonalLoop=1;jettySize=auto;html=1;exitX=0;exitY=0.3333333333333333;exitDx=0;exitDy=0;exitPerimeter=0;entryX=1;entryY=0.5;entryDx=0;entryDy=0;fillColor=#ffe6cc;strokeColor=#d79b00;curved=1;" parent="1" source="rr90imxMItdPGlIV6I_6-37" target="rr90imxMItdPGlIV6I_6-41" edge="1">
          <mxGeometry relative="1" as="geometry" />
        </mxCell>
        <mxCell id="rr90imxMItdPGlIV6I_6-37" value="Vijilante" style="shape=umlActor;verticalLabelPosition=bottom;verticalAlign=top;html=1;outlineConnect=0;" parent="1" vertex="1">
          <mxGeometry x="630" y="450" width="30" height="60" as="geometry" />
        </mxCell>
        <mxCell id="rr90imxMItdPGlIV6I_6-40" value="Lee codigo" style="ellipse;whiteSpace=wrap;html=1;" parent="1" vertex="1">
          <mxGeometry x="280" y="590" width="160" height="80" as="geometry" />
        </mxCell>
        <mxCell id="rr90imxMItdPGlIV6I_6-41" value="Crea entrada anonima" style="ellipse;whiteSpace=wrap;html=1;" parent="1" vertex="1">
          <mxGeometry x="275" y="690" width="160" height="80" as="geometry" />
        </mxCell>
        <mxCell id="rr90imxMItdPGlIV6I_6-43" style="edgeStyle=orthogonalEdgeStyle;rounded=0;orthogonalLoop=1;jettySize=auto;html=1;entryX=1;entryY=0.5;entryDx=0;entryDy=0;fillColor=#ffe6cc;strokeColor=#d79b00;curved=1;" parent="1" target="rr90imxMItdPGlIV6I_6-40" edge="1">
          <mxGeometry relative="1" as="geometry">
            <mxPoint x="630" y="470" as="sourcePoint" />
            <mxPoint x="445" y="740" as="targetPoint" />
            <Array as="points">
              <mxPoint x="630" y="471" />
              <mxPoint x="520" y="471" />
              <mxPoint x="520" y="630" />
            </Array>
          </mxGeometry>
        </mxCell>
      </root>
    </mxGraphModel>
  </diagram>
</mxfile>
